<?xml version="1.0" encoding="UTF-8"?>
<svg version="1.1" xmlns="http://www.w3.org/2000/svg" width="256" height="256">
<path d="M0 0 C0.77432373 0.36641602 1.54864746 0.73283203 2.34643555 1.11035156 C4.99266158 2.53574235 6.94798339 3.79552761 9 6 C10.09413118 10.01243289 9.85937871 13.75422205 9.5625 17.875 C9.52189453 18.94492188 9.48128906 20.01484375 9.43945312 21.1171875 C9.3336914 23.74947927 9.18614218 26.37237237 9 29 C9.91652344 29.28746094 10.83304688 29.57492188 11.77734375 29.87109375 C18.99134717 32.39818101 22.57662285 36.16523507 26.0546875 42.9140625 C29.32363919 50.12736912 29.27212215 58.90198288 26.94140625 66.41015625 C23.47044404 73.85061995 18.82295996 80.12092469 10.9921875 83.171875 C6.79633341 85.73539943 5.86462743 88.7227672 4.125 93.1875 C3.44035038 94.82411199 2.75278869 96.45950845 2.0625 98.09375 C1.54816406 99.32931641 1.54816406 99.32931641 1.0234375 100.58984375 C-5.82656525 116.72133878 -14.72921604 131.41081246 -27 144 C-27.86625 144.9075 -28.7325 145.815 -29.625 146.75 C-30.40875 147.4925 -31.1925 148.235 -32 149 C-32.928125 149.928125 -33.85625 150.85625 -34.8125 151.8125 C-48.83199604 163.77580329 -65.30794271 165.37510865 -83 164 C-101.97708647 160.72852076 -116.61434219 144.56079928 -127.16723633 129.67749023 C-133.20860967 120.95004866 -138.46756324 111.94440542 -142.43359375 102.08203125 C-142.85125 101.05585693 -143.26890625 100.02968262 -143.69921875 98.97241211 C-144.50459447 96.95786129 -145.28108998 94.93144072 -146.0234375 92.89282227 C-148.62737569 86.34637299 -151.33081778 83.40871894 -157.66088867 80.25366211 C-163.28817453 77.23768122 -166.93779219 71.52659395 -169.3046875 65.71875 C-171.36868171 57.64830074 -171.31891398 48.37728666 -167.328125 40.9296875 C-163.09887255 34.78483246 -158.83866756 31.72893066 -152 29 C-152.03311279 28.00987915 -152.03311279 28.00987915 -152.06689453 26.99975586 C-152.50591146 8.45210362 -152.50591146 8.45210362 -149.234375 3.125 C-146.56456455 1.2154667 -144.08469243 0.1213536 -141 -1 C-139.92363281 -1.50660156 -138.84726563 -2.01320313 -137.73828125 -2.53515625 C-98.82651114 -19.95769798 -37.82395618 -21.33038961 0 0 Z M-129 26 C-129 33.59 -129 41.18 -129 49 C-132.48307292 48.93489583 -135.96614583 48.86979167 -139.44921875 48.8046875 C-142.81237857 48.98967979 -144.9985587 49.54232105 -148 51 C-148.76559654 54.54958396 -149.21356597 57.21692479 -148.25 60.75 C-145.57802931 63.42197069 -144.26802587 63.44745611 -140.625 64.125 C-135.49314553 65.35745324 -135.49314553 65.35745324 -133.4140625 68.06640625 C-132.11088009 71.00075321 -131.04844704 73.96520943 -130 77 C-128.98089886 79.47145651 -127.94581586 81.92637042 -126.875 84.375 C-126.58633057 85.03822266 -126.29766113 85.70144531 -126.00024414 86.38476562 C-119.57149314 100.9337766 -112.52595899 114.97537013 -102 127 C-101.32324219 127.77601563 -100.64648438 128.55203125 -99.94921875 129.3515625 C-93.24161866 136.52963555 -84.65658735 142.32172214 -74.703125 143.3359375 C-62.14669403 143.47797857 -54.36394771 140.23957125 -45 132 C-44.40574219 131.48824219 -43.81148438 130.97648437 -43.19921875 130.44921875 C-27.65102393 116.04479918 -18.02289939 93.40821621 -11.1171875 73.83032227 C-8.69184778 67.34771161 -8.69184778 67.34771161 -4.9765625 65.48046875 C-3.99429688 65.32191406 -3.01203125 65.16335937 -2 65 C2.74890997 63.38117859 2.74890997 63.38117859 6.5 60.25 C7.24962539 56.87668576 6.86225066 54.32582397 6 51 C2.45575768 48.21397867 -1.5256459 48.97663083 -5.75 49.375 C-8.1425 49.58125 -10.535 49.7875 -13 50 C-13 42.08 -13 34.16 -13 26 C-15.97 26.99 -18.94 27.98 -22 29 C-54.81685527 38.73528189 -89.46791263 39.29120558 -122 28 C-124.31 27.34 -126.62 26.68 -129 26 Z " fill="#323232" transform="translate(199,92)"/>
<path d="M0 0 C8.43138326 4.25832689 16.14174699 9.74015404 23.82226562 15.20336914 C42.83235907 28.66995981 61.65653984 39.32058842 84.67675781 44.2565918 C90.89254435 45.66187284 90.89254435 45.66187284 92.91699219 48.68725586 C93.23537016 56.3283272 88.41257923 62.68960964 83.55712891 68.24243164 C77.56276702 74.7190754 71.09492051 80.53944868 63.91699219 85.68725586 C60.95768579 84.27135189 58.24196223 82.64031428 55.47949219 80.87475586 C21.55434338 60.60842423 -29.95787082 62.800617 -66.98486328 72.11645508 C-75.2952756 74.37730497 -82.71752287 77.72516683 -89.96191406 82.35522461 C-91.95402437 83.60625521 -93.96255806 84.67270961 -96.08300781 85.68725586 C-122.89461061 63.45324378 -122.89461061 63.45324378 -125.20800781 51.68725586 C-125.08300781 48.68725586 -125.08300781 48.68725586 -123.875 47.08691406 C-121.69981273 45.38795648 -119.97143983 44.91481227 -117.28613281 44.29272461 C-116.33512695 44.06294922 -115.38412109 43.83317383 -114.40429688 43.59643555 C-113.39077148 43.35828125 -112.37724609 43.12012695 -111.33300781 42.87475586 C-101.85295834 40.50840884 -92.95201971 37.8506414 -84.08300781 33.68725586 C-83.4367041 33.38996582 -82.79040039 33.09267578 -82.12451172 32.78637695 C-68.75471881 26.5195846 -56.59311911 18.31453848 -44.3762207 10.08740234 C-30.29635009 0.62879868 -17.09558014 -7.70808801 0 0 Z M-31.08300781 31.68725586 C-32.06806832 39.73191666 -28.62882654 46.03823779 -23.83300781 52.24975586 C-21.42959884 54.7915274 -19.66561898 56.30714856 -16.14550781 56.74975586 C-12.28483664 56.33664902 -10.39025071 54.44614261 -7.77050781 51.68725586 C-3.48172632 46.31153368 -1.59506106 41.70836999 -0.45800781 34.99975586 C-1.1538439 31.3118246 -1.52464156 30.93050601 -4.39550781 28.81225586 C-13.088886 23.30827219 -23.79268915 24.3969372 -31.08300781 31.68725586 Z " fill="#323232" transform="translate(144.0830078125,2.312744140625)"/>
<path d="M0 0 C0.94875 -0.00515625 1.8975 -0.0103125 2.875 -0.015625 C6 0.25 6 0.25 9.68554688 1.26098633 C13.86244942 2.32864354 17.86322221 2.46100795 22.15625 2.33984375 C23.688799 2.31942892 25.22135122 2.2992539 26.75390625 2.27929688 C29.13019285 2.23585516 31.50624972 2.18735846 33.88232422 2.13354492 C36.20279077 2.0848923 38.52295463 2.05528458 40.84375 2.02734375 C41.89254333 1.9947068 41.89254333 1.9947068 42.96252441 1.96141052 C48.25267728 1.90898779 52.17403489 3.0472246 57 5.25 C60.00391709 9.19264118 60.54714903 12.99072422 60.3359375 17.82421875 C59.21429456 25.92352419 55.82403369 31.49466425 49.48828125 36.6171875 C43.18130994 40.75582802 36.80594156 41.92829873 29.37890625 40.8125 C21.57238391 38.9666228 16.52654195 34.82426331 12 28.25 C9.12513903 22.89786521 9 19.58631228 9 13.25 C3.06 13.25 -2.88 13.25 -9 13.25 C-9 15.56 -9 17.87 -9 20.25 C-10.75424461 28.3833159 -15.1957353 33.65519766 -22 38.25 C-28.49386723 41.77952642 -34.87209597 41.77061953 -42 40.25 C-49.31145881 37.99638047 -54.41975482 32.88895145 -58.1015625 26.26953125 C-60.71330183 20.15513217 -60.87811238 14.21362927 -59 7.875 C-56.3170907 4.35368155 -53.15073922 3.35713435 -49 2.25 C-46.26281835 1.91765524 -43.5965465 1.94168066 -40.84375 2.02734375 C-39.72389709 2.04082603 -39.72389709 2.04082603 -38.5814209 2.05458069 C-36.22044654 2.08430729 -33.86054698 2.13403813 -31.5 2.1875 C-29.13952865 2.23563833 -26.77934414 2.27896562 -24.4185791 2.30970764 C-22.95803317 2.32916333 -21.49756968 2.358434 -20.03747559 2.39964294 C-13.10106147 2.50080503 -6.88927062 -0.03744169 0 0 Z " fill="#323232" transform="translate(128,134.75)"/>
</svg>
